<?xml version="1.0" encoding="iso-8859-1"?>
<!-- Generator: Adobe Illustrator 18.0.0, SVG Export Plug-In . SVG Version: 6.00 Build 0)  -->
<!DOCTYPE svg PUBLIC "-//W3C//DTD SVG 1.1//EN" "http://www.w3.org/Graphics/SVG/1.1/DTD/svg11.dtd">
<svg xmlns="http://www.w3.org/2000/svg" xmlns:xlink="http://www.w3.org/1999/xlink" version="1.1" id="Capa_1" x="0px" y="0px" viewBox="0 0 446.215 446.215" style="enable-background:new 0 0 446.215 446.215;" xml:space="preserve" width="512px" height="512px">
<g>
	<path d="M422.449,137.87c-0.131-15.667-6.212-30.48-17.235-41.501c-10.98-10.98-25.698-17.087-41.498-17.23   c-9.93-9.694-22.822-15.762-36.695-16.885c-2.506-10.507-7.807-20.163-15.576-27.932c-10.981-10.98-25.698-17.087-41.498-17.23   C258.912,6.316,244.221,0,228.587,0c-15.635,0-30.325,6.315-41.361,17.09c-15.795,0.143-30.51,6.248-41.494,17.227   c-11.026,11.024-17.108,25.84-17.239,41.506c-6.911,7.08-11.978,15.666-14.725,25.039c-11.79,2.089-22.647,7.767-31.268,16.185   c-15.796,0.142-30.513,6.248-41.497,17.229c-11.023,11.023-17.105,25.839-17.237,41.505   c-10.772,11.036-17.086,25.725-17.086,41.357s6.315,30.322,17.087,41.357c0.133,15.671,6.215,30.484,17.235,41.502   c10.976,10.976,25.694,17.082,41.496,17.229c11.036,10.777,25.727,17.092,41.363,17.092c11.74,0,22.947-3.562,32.474-9.898   l49.128,107.646c3.933,8.618,12.534,14.147,22.007,14.147h0c10.274,0,19.428-6.49,22.828-16.185L298.9,291.437   c7.298,3.215,15.243,4.973,23.455,4.973c15.636,0,30.326-6.316,41.363-17.092c15.799-0.148,30.516-6.251,41.494-17.225   c11.025-11.029,17.106-25.844,17.237-41.506c10.773-11.036,17.087-25.725,17.087-41.358S433.222,148.906,422.449,137.87z    M327.601,169.414c3.508,1.877,5.904,5.565,5.904,9.815c0,6.148-5.002,11.15-11.15,11.15c-0.996,0-1.958-0.144-2.877-0.391   C323.456,183.716,326.204,176.749,327.601,169.414z M161.045,287.028c-3.165-0.357-6.282-1.175-9.259-2.409   c-4.879,11.62-15.562,19.701-27.927,19.701c-12.365,0-23.049-8.081-27.927-19.701c-2.977,1.234-6.094,2.052-9.259,2.409   c-1.189,0.134-2.397,0.203-3.589,0.203c-8.013,0-15.425-3-20.872-8.446c-6.282-6.282-9.287-15.196-8.244-24.458   c0.358-3.166,1.176-6.284,2.41-9.262c-11.619-4.878-19.7-15.562-19.7-27.926c0-12.365,8.081-23.049,19.7-27.928   c-1.234-2.977-2.052-6.094-2.409-9.259c-1.044-9.264,1.961-18.178,8.243-24.46c5.462-5.461,12.911-8.448,20.848-8.447   c1.194,0,2.401,0.067,3.612,0.205c3.165,0.356,6.281,1.174,9.259,2.408c4.879-11.62,15.562-19.7,27.927-19.7   c12.364,0,23.048,8.081,27.927,19.701c2.978-1.235,6.095-2.053,9.261-2.409c1.208-0.136,2.409-0.203,3.601-0.203   c7.934,0,15.392,2.981,20.856,8.444c6.283,6.284,9.288,15.198,8.244,24.459c-0.357,3.166-1.175,6.284-2.41,9.261   c11.62,4.879,19.701,15.563,19.701,27.928c0,12.364-8.081,23.048-19.7,27.926c1.234,2.978,2.052,6.094,2.409,9.259   c1.044,9.264-1.961,18.179-8.244,24.46c-5.446,5.446-12.859,8.446-20.872,8.446C163.443,287.23,162.236,287.162,161.045,287.028z    M213.586,377.612l-29.075-63.708c8.305-2.882,15.881-7.58,22.208-13.908c2.565-2.564,4.85-5.342,6.867-8.281V377.612z    M217.437,117.181c0-6.148,5.002-11.15,11.149-11.15c6.148,0,11.15,5.002,11.15,11.15s-5.002,11.15-11.15,11.15   C222.439,128.331,217.437,123.329,217.437,117.181z M223.953,175.781c-0.052-6.254-1.069-12.367-2.954-18.163   c2.461,0.461,4.994,0.713,7.587,0.713c22.69,0,41.15-18.46,41.15-41.15s-18.46-41.15-41.15-41.15   c-22.689,0-41.149,18.46-41.149,41.15c0,1.479,0.083,2.939,0.235,4.379c-6.999-2.89-14.591-4.44-22.451-4.511   c-5.91-5.77-12.874-10.245-20.463-13.173c3.408-6.429,9.206-11.623,16.349-14.622c-1.234-2.977-2.052-6.094-2.409-9.259   c-1.045-9.262,1.96-18.177,8.243-24.46c5.464-5.462,12.917-8.447,20.854-8.447c1.193,0,2.397,0.067,3.607,0.204   c3.165,0.357,6.281,1.175,9.258,2.409C205.538,38.081,216.222,30,228.587,30s23.049,8.081,27.927,19.701   c2.978-1.234,6.094-2.052,9.259-2.409c1.209-0.136,2.411-0.204,3.604-0.204c7.94,0,15.392,2.983,20.857,8.447   c6.283,6.283,9.287,15.198,8.242,24.459c-0.357,3.165-1.174,6.281-2.409,9.259c11.62,4.878,19.701,15.562,19.701,27.927   s-8.081,23.049-19.701,27.928c1.234,2.978,2.052,6.094,2.409,9.259c1.045,9.261-1.959,18.176-8.241,24.459   c-5.45,5.447-12.862,8.446-20.873,8.446c-1.192,0-2.4-0.069-3.591-0.203c-3.164-0.357-6.28-1.175-9.257-2.409   c-3.422,8.151-9.705,14.548-17.418,17.645C236.459,192.356,231.228,183.234,223.953,175.781z M243.586,358.511v-92.706   c8.046,6.663,17.677,11.007,28.057,12.703L243.586,358.511z M389.835,207.156c1.234,2.978,2.052,6.094,2.409,9.259   c1.045,9.261-1.96,18.176-8.241,24.459c-5.45,5.447-12.862,8.446-20.873,8.446c-1.192,0-2.4-0.068-3.591-0.202   c-3.164-0.357-6.28-1.175-9.257-2.409c-4.879,11.62-15.562,19.701-27.927,19.701s-23.049-8.081-27.927-19.701   c-2.976,1.234-6.093,2.052-9.258,2.409c-1.19,0.134-2.398,0.202-3.589,0.202c-8.013,0-15.425-3-20.872-8.446   c-3.398-3.397-5.828-7.569-7.186-12.146c6.027-2.855,11.58-6.726,16.427-11.458c9.324-0.087,18.262-2.263,26.286-6.275   c7.109,5.859,16.209,9.384,26.12,9.384c22.69,0,41.15-18.46,41.15-41.15c0-16.327-9.564-30.45-23.379-37.093   c3.651-7.702,5.642-16.179,5.642-24.955c0-5.393-0.768-10.667-2.195-15.725c2.78,2.925,5.076,6.402,6.709,10.292   c2.978-1.234,6.094-2.052,9.259-2.409c1.209-0.136,2.412-0.203,3.604-0.203c7.94,0,15.392,2.982,20.856,8.447   c6.283,6.283,9.287,15.198,8.243,24.459c-0.357,3.165-1.174,6.281-2.409,9.259c11.62,4.878,19.701,15.562,19.701,27.927   S401.455,202.277,389.835,207.156z" fill="#FFFFFF"/>
	<path d="M165.009,217.138c0-22.689-18.46-41.149-41.149-41.149c-22.69,0-41.15,18.46-41.15,41.149c0,22.69,18.46,41.15,41.15,41.15   C146.549,258.288,165.009,239.828,165.009,217.138z M123.86,228.288c-6.148,0-11.15-5.002-11.15-11.15   c0-6.147,5.002-11.149,11.15-11.149c6.147,0,11.149,5.002,11.149,11.149C135.009,223.286,130.007,228.288,123.86,228.288z" fill="#FFFFFF"/>
</g>
<g>
</g>
<g>
</g>
<g>
</g>
<g>
</g>
<g>
</g>
<g>
</g>
<g>
</g>
<g>
</g>
<g>
</g>
<g>
</g>
<g>
</g>
<g>
</g>
<g>
</g>
<g>
</g>
<g>
</g>
</svg>
