<?xml version="1.0" encoding="iso-8859-1"?>
<!-- Generator: Adobe Illustrator 18.0.0, SVG Export Plug-In . SVG Version: 6.00 Build 0)  -->
<!DOCTYPE svg PUBLIC "-//W3C//DTD SVG 1.1//EN" "http://www.w3.org/Graphics/SVG/1.1/DTD/svg11.dtd">
<svg xmlns="http://www.w3.org/2000/svg" xmlns:xlink="http://www.w3.org/1999/xlink" version="1.1" id="Capa_1" x="0px" y="0px" viewBox="0 0 454.013 454.013" style="enable-background:new 0 0 454.013 454.013;" xml:space="preserve" width="512px" height="512px">
<path id="XMLID_1638_" d="M347.578,223.061h-83.294l21.971-18.31c6.402,3.076,13.759,4.67,21.759,4.67  c3.106,0,6.31-0.239,9.589-0.722c14.484-2.133,28.788-9.063,38.261-18.536c38.276-38.275,31.081-90.189,30.756-92.38  c-0.97-6.536-6.102-11.667-12.637-12.637c-2.191-0.325-54.105-7.52-92.381,30.756c-16.293,16.292-24.189,45.222-15.743,66.795  l-27.334,22.779c7.067-128.227,25.815-184.72,26.111-185.591c2.692-7.824-1.459-16.352-9.28-19.058  c-7.829-2.706-16.372,1.444-19.079,9.274c-0.742,2.144-14.768,43.686-23.52,136.83l-24.601-20.501  c8.447-21.573,0.55-50.503-15.742-66.796h0c-38.276-38.275-90.19-31.08-92.38-30.755c-6.536,0.97-11.667,6.101-12.637,12.637  c-0.325,2.191-7.519,54.105,30.756,92.38c11.782,11.783,30.173,19.18,47.613,19.18c7.725,0,15.262-1.458,21.956-4.625l42.089,35.074  c-0.843,12.44-1.582,25.611-2.187,39.534H98.397c-8.284,0-15,6.716-15,15v64.305c0,8.284,6.716,15,15,15h12.891l37.023,125.88  c1.878,6.384,7.736,10.768,14.391,10.768h120.572c6.654,0,12.513-4.384,14.391-10.768l37.023-125.88h12.891c8.284,0,15-6.716,15-15  v-64.305C362.578,229.776,355.862,223.061,347.578,223.061z" fill="#FFFFFF"/>
<g>
</g>
<g>
</g>
<g>
</g>
<g>
</g>
<g>
</g>
<g>
</g>
<g>
</g>
<g>
</g>
<g>
</g>
<g>
</g>
<g>
</g>
<g>
</g>
<g>
</g>
<g>
</g>
<g>
</g>
</svg>
